<?xml version="1.0" encoding="UTF-8"?>
<!DOCTYPE svg PUBLIC "-//W3C//DTD SVG 1.1//EN" "http://www.w3.org/Graphics/SVG/1.1/DTD/svg11.dtd">
<svg xmlns="http://www.w3.org/2000/svg" version="1.1" width="738px" height="425px" style="shape-rendering:geometricPrecision; text-rendering:geometricPrecision; image-rendering:optimizeQuality; fill-rule:evenodd; clip-rule:evenodd" xmlns:xlink="http://www.w3.org/1999/xlink">
<g><path style="opacity:0.988" fill="#fefffe" d="M 476.5,11.5 C 501.169,11.3334 525.836,11.5 550.5,12C 607.164,13.7487 652.997,36.582 688,80.5C 720.146,128.552 727.979,180.385 711.5,236C 703.964,259.92 691.464,280.753 674,298.5C 673.667,299.833 673.333,301.167 673,302.5C 656.198,317.634 639.698,333.134 623.5,349C 613.736,357.387 603.403,365.054 592.5,372C 564.387,388.28 534.053,396.946 501.5,398C 473.476,398.91 445.476,398.576 417.5,397C 410.269,395.776 403.269,393.776 396.5,391C 389.607,386.597 382.607,382.43 375.5,378.5C 368.728,382.096 362.061,385.929 355.5,390C 348.125,393.094 340.458,395.094 332.5,396C 250.5,396.667 168.5,396.667 86.5,396C 57.4736,392.636 38.3069,377.136 29,349.5C 25.6675,337.174 25.6675,324.841 29,312.5C 32.1762,303.146 36.1762,294.146 41,285.5C 78,221.5 115,157.5 152,93.5C 156.623,87.2079 161.623,81.2079 167,75.5C 185.469,58.6991 203.636,41.5324 221.5,24C 259.493,4.55825 290.993,12.0583 316,46.5C 330.167,70.8333 344.333,95.1667 358.5,119.5C 360.602,106.639 365.435,94.972 373,84.5C 391.5,66 410,47.5 428.5,29C 435.513,24.4919 442.847,20.4919 450.5,17C 459.132,14.3085 467.799,12.4751 476.5,11.5 Z M 253.5,42.5 C 267.059,41.5319 278.226,46.1985 287,56.5C 326.934,126.758 367.267,196.758 408,266.5C 416.358,285.396 412.524,301.229 396.5,314C 392.186,316.66 387.519,318.327 382.5,319C 299.833,319.667 217.167,319.667 134.5,319C 115.797,315.105 105.797,303.605 104.5,284.5C 105.044,275.407 107.878,267.073 113,259.5C 152.253,191.997 191.253,124.33 230,56.5C 236.319,49.098 244.153,44.4314 253.5,42.5 Z M 467.5,42.5 C 496.502,42.3334 525.502,42.5 554.5,43C 603.456,45.3805 641.623,66.5472 669,106.5C 693.153,150.178 695.819,195.178 677,241.5C 656.702,282.773 623.869,307.939 578.5,317C 570.558,318.468 562.558,319.468 554.5,320C 525.5,320.667 496.5,320.667 467.5,320C 451,316.833 441.167,307 438,290.5C 437.333,217.833 437.333,145.167 438,72.5C 441.347,55.9872 451.18,45.9872 467.5,42.5 Z"/></g>
</svg>
