<svg xmlns="http://www.w3.org/2000/svg" width="738" height="425" viewBox="0 0 738 425" version="1.1"><path d="M 466 43.814 C 453.828 46.996, 446.138 53.216, 441.101 63.954 L 438.500 69.500 438.500 182 L 438.500 294.500 441.135 300.120 C 444.788 307.910, 450.130 313.455, 457.358 316.957 C 467.561 321.901, 472.993 322.319, 519.420 321.734 C 565.172 321.158, 574.837 320.204, 593.995 314.372 C 635.678 301.684, 669.776 268.705, 683.369 227.934 C 692.580 200.308, 692.580 163.692, 683.369 136.066 C 667.962 89.856, 628.011 55.453, 578.639 45.882 C 564.018 43.048, 544.636 42.024, 506.500 42.072 C 477.822 42.109, 471.483 42.381, 466 43.814 M 249.286 44.391 C 239.649 47.539, 231.346 54.480, 226.982 63.036 C 225.824 65.306, 199.130 111.788, 167.662 166.331 C 136.195 220.874, 109.344 267.975, 107.994 271 C 104.396 279.066, 104.457 291.275, 108.135 299.120 C 111.842 307.025, 117.130 312.447, 124.837 316.240 L 131.458 319.500 259 319.500 L 386.542 319.500 393.163 316.240 C 409.022 308.433, 416.626 290.578, 411.073 274.184 C 409.796 270.412, 385.651 227.503, 351.146 167.684 C 319.362 112.583, 292.071 65.120, 290.499 62.212 C 284.505 51.122, 273.091 43.931, 260.555 43.344 C 256.364 43.148, 251.789 43.573, 249.286 44.391" stroke="none" fill="#fb43e3" fill-rule="evenodd"/><path d="M 471 12.980 C 456.997 14.748, 446.783 18.375, 436.743 25.144 C 428.101 30.971, 374.444 83.767, 369.937 90.878 C 365.134 98.455, 362.314 105.399, 360.803 113.364 C 360.110 117.014, 359.309 119.987, 359.022 119.970 C 358.735 119.954, 349.950 105.034, 339.500 86.816 C 316.916 47.443, 313.700 42.444, 305.651 34.198 C 297.755 26.108, 290.916 21.589, 280.695 17.709 C 272.991 14.785, 271.691 14.599, 259 14.605 C 246.645 14.610, 244.864 14.849, 238 17.427 C 233.875 18.976, 228.475 21.408, 226 22.832 C 223.525 24.255, 209.125 37.204, 194 51.606 C 161.378 82.671, 158.453 85.676, 153.223 93.500 C 146.456 103.623, 41.047 286.849, 35.862 297.500 C 28.867 311.870, 26.602 321.747, 27.267 334.985 C 28.695 363.409, 46.979 386.016, 75.500 394.622 C 81.126 396.319, 89.237 396.452, 205.500 396.748 C 288.181 396.959, 331.753 396.717, 336.263 396.021 C 345.612 394.579, 354.877 391.382, 361.180 387.423 C 377.342 377.271, 376.206 377.434, 385.016 384.021 C 392.506 389.622, 401.049 393.545, 411.615 396.237 C 420.189 398.421, 422.058 398.500, 465 398.500 C 510.798 398.500, 518.311 398.038, 537.500 394.038 C 566.096 388.077, 593.276 374.739, 616.029 355.500 C 631.771 342.189, 674 302.306, 674 300.749 C 674 300.209, 676.362 297.214, 679.250 294.094 C 689.350 283.179, 700.939 264.563, 707.382 248.903 C 727.582 199.816, 723.690 139.235, 697.511 95.225 C 670.465 49.757, 627.054 22.195, 569.500 13.948 C 559.901 12.573, 480.410 11.791, 471 12.980 M 466 43.814 C 453.828 46.996, 446.138 53.216, 441.101 63.954 L 438.500 69.500 438.500 182 L 438.500 294.500 441.135 300.120 C 444.788 307.910, 450.130 313.455, 457.358 316.957 C 467.561 321.901, 472.993 322.319, 519.420 321.734 C 565.172 321.158, 574.837 320.204, 593.995 314.372 C 635.678 301.684, 669.776 268.705, 683.369 227.934 C 692.580 200.308, 692.580 163.692, 683.369 136.066 C 667.962 89.856, 628.011 55.453, 578.639 45.882 C 564.018 43.048, 544.636 42.024, 506.500 42.072 C 477.822 42.109, 471.483 42.381, 466 43.814 M 249.286 44.391 C 239.649 47.539, 231.346 54.480, 226.982 63.036 C 225.824 65.306, 199.130 111.788, 167.662 166.331 C 136.195 220.874, 109.344 267.975, 107.994 271 C 104.396 279.066, 104.457 291.275, 108.135 299.120 C 111.842 307.025, 117.130 312.447, 124.837 316.240 L 131.458 319.500 259 319.500 L 386.542 319.500 393.163 316.240 C 409.022 308.433, 416.626 290.578, 411.073 274.184 C 409.796 270.412, 385.651 227.503, 351.146 167.684 C 319.362 112.583, 292.071 65.120, 290.499 62.212 C 284.505 51.122, 273.091 43.931, 260.555 43.344 C 256.364 43.148, 251.789 43.573, 249.286 44.391" stroke="none" fill="#040404" fill-rule="evenodd"/></svg>