<?xml version="1.0" encoding="UTF-8"?>
<!DOCTYPE svg PUBLIC "-//W3C//DTD SVG 1.1//EN" "http://www.w3.org/Graphics/SVG/1.1/DTD/svg11.dtd">
<svg xmlns="http://www.w3.org/2000/svg" version="1.1" width="1000px" height="750px" style="shape-rendering:geometricPrecision; text-rendering:geometricPrecision; image-rendering:optimizeQuality; fill-rule:evenodd; clip-rule:evenodd" xmlns:xlink="http://www.w3.org/1999/xlink">

<g><path style="opacity:0.016" fill="#fe44e5" d="M 8.5,-0.5 C 8.83333,-0.5 9.16667,-0.5 9.5,-0.5C 9.31468,0.170143 8.98135,0.170143 8.5,-0.5 Z"/></g>
<g><path style="opacity:0.998" fill="#fe44e5" d="M 10.5,-0.5 C 340.167,-0.5 669.833,-0.5 999.5,-0.5C 999.5,216.833 999.5,434.167 999.5,651.5C 999.167,651.5 998.833,651.5 998.5,651.5C 998.167,650.167 997.833,650.167 997.5,651.5C 996.784,649.845 995.117,648.512 992.5,647.5C 991.699,645.492 990.366,644.992 988.5,646C 989.032,643.995 988.032,642.829 985.5,642.5C 984.699,640.492 983.366,639.992 981.5,641C 982.032,638.995 981.032,637.829 978.5,637.5C 977.699,635.492 976.366,634.992 974.5,636C 975.032,633.995 974.032,632.829 971.5,632.5C 970.699,630.492 969.366,629.992 967.5,631C 968.032,628.995 967.032,627.829 964.5,627.5C 963.699,625.492 962.366,624.992 960.5,626C 961.032,623.995 960.032,622.829 957.5,622.5C 956.699,620.492 955.366,619.992 953.5,621C 954.032,618.995 953.032,617.829 950.5,617.5C 949.699,615.492 948.366,614.992 946.5,616C 947.032,613.995 946.032,612.829 943.5,612.5C 942.699,610.492 941.366,609.992 939.5,611C 940.032,608.995 939.032,607.829 936.5,607.5C 935.699,605.492 934.366,604.992 932.5,606C 933.032,603.995 932.032,602.829 929.5,602.5C 928.699,600.492 927.366,599.992 925.5,601C 926.032,598.995 925.032,597.829 922.5,597.5C 921.699,595.492 920.366,594.992 918.5,596C 919.032,593.995 918.032,592.829 915.5,592.5C 914.699,590.492 913.366,589.992 911.5,591C 912.032,588.995 911.032,587.829 908.5,587.5C 907.699,585.492 906.366,584.992 904.5,586C 905.032,583.995 904.032,582.829 901.5,582.5C 900.699,580.492 899.366,579.992 897.5,581C 898.032,578.995 897.032,577.829 894.5,577.5C 893.699,575.492 892.366,574.992 890.5,576C 891.032,573.995 890.032,572.829 887.5,572.5C 886.699,570.492 885.366,569.992 883.5,571C 884.032,568.995 883.032,567.829 880.5,567.5C 879.699,565.492 878.366,564.992 876.5,566C 877.032,563.995 876.032,562.829 873.5,562.5C 872.699,560.492 871.366,559.992 869.5,561C 870.032,558.995 869.032,557.829 866.5,557.5C 865.699,555.492 864.366,554.992 862.5,556C 863.032,553.995 862.032,552.829 859.5,552.5C 858.699,550.492 857.366,549.992 855.5,551C 856.032,548.995 855.032,547.829 852.5,547.5C 851.699,545.492 850.366,544.992 848.5,546C 849.032,543.995 848.032,542.829 845.5,542.5C 844.699,540.492 843.366,539.992 841.5,541C 842.032,538.995 841.032,537.829 838.5,537.5C 837.699,535.492 836.366,534.992 834.5,536C 835.032,533.995 834.032,532.829 831.5,532.5C 830.699,530.492 829.366,529.992 827.5,531C 828.032,528.995 827.032,527.829 824.5,527.5C 823.699,525.492 822.366,524.992 820.5,526C 820.833,525.667 821.167,525.333 821.5,525C 819.091,522.459 816.424,521.126 813.5,521C 813.833,520.667 814.167,520.333 814.5,520C 812.091,517.459 809.424,516.126 806.5,516C 806.833,515.667 807.167,515.333 807.5,515C 805.091,512.459 802.424,511.126 799.5,511C 799.833,510.667 800.167,510.333 800.5,510C 798.091,507.459 795.424,506.126 792.5,506C 792.833,505.667 793.167,505.333 793.5,505C 791.091,502.459 788.424,501.126 785.5,501C 785.833,500.667 786.167,500.333 786.5,500C 784.091,497.459 781.424,496.126 778.5,496C 779.032,493.995 778.032,492.829 775.5,492.5C 812.23,451.459 826.73,403.459 819,348.5C 803.991,272.491 758.491,226.657 682.5,211C 673.545,209.589 664.545,208.589 655.5,208C 629.167,207.333 602.833,207.333 576.5,208C 535.786,212.714 514.286,235.547 512,276.5C 511.667,315.833 511.333,355.167 511,394.5C 510.612,395.428 509.945,396.095 509,396.5C 504.63,392.127 500.963,387.127 498,381.5C 471.586,335.003 444.919,288.67 418,242.5C 399.15,213.501 372.983,203.668 339.5,213C 331.336,216.244 324.002,220.744 317.5,226.5C 316.833,226.5 316.5,226.833 316.5,227.5C 315.784,225.845 314.117,224.512 311.5,223.5C 310.738,221.738 309.404,220.738 307.5,220.5C 305.332,217.593 302.665,216.093 299.5,216C 300.258,214.636 299.758,213.469 298,212.5C 296.16,213.833 295.66,213.666 296.5,212C 295.667,211.167 294.833,210.333 294,209.5C 292.16,210.833 291.66,210.666 292.5,209C 291.529,207.519 290.196,206.685 288.5,206.5C 287.738,204.738 286.404,203.738 284.5,203.5C 283.738,201.738 282.404,200.738 280.5,200.5C 279.699,198.492 278.366,197.992 276.5,199C 277.258,197.636 276.758,196.469 275,195.5C 273.16,196.833 272.66,196.666 273.5,195C 272.667,194.167 271.833,193.333 271,192.5C 269.16,193.833 268.66,193.666 269.5,192C 268.667,191.167 267.833,190.333 267,189.5C 265.16,190.833 264.66,190.666 265.5,189C 264.529,187.519 263.196,186.685 261.5,186.5C 260.738,184.738 259.404,183.738 257.5,183.5C 255.332,180.593 252.665,179.093 249.5,179C 250.258,177.636 249.758,176.469 248,175.5C 246.16,176.833 245.66,176.666 246.5,175C 245.667,174.167 244.833,173.333 244,172.5C 242.16,173.833 241.66,173.666 242.5,172C 241.529,170.519 240.196,169.685 238.5,169.5C 237.738,167.738 236.404,166.738 234.5,166.5C 233.738,164.738 232.404,163.738 230.5,163.5C 229.699,161.492 228.366,160.992 226.5,162C 227.258,160.636 226.758,159.469 225,158.5C 223.16,159.833 222.66,159.666 223.5,158C 222.667,157.167 221.833,156.333 221,155.5C 219.16,156.833 218.66,156.666 219.5,155C 218.529,153.519 217.196,152.685 215.5,152.5C 214.738,150.738 213.404,149.738 211.5,149.5C 210.738,147.738 209.404,146.738 207.5,146.5C 205.332,143.593 202.665,142.093 199.5,142C 200.258,140.636 199.758,139.469 198,138.5C 196.16,139.833 195.66,139.666 196.5,138C 195.667,137.167 194.833,136.333 194,135.5C 192.16,136.833 191.66,136.666 192.5,135C 191.529,133.519 190.196,132.685 188.5,132.5C 187.738,130.738 186.404,129.738 184.5,129.5C 183.738,127.738 182.404,126.738 180.5,126.5C 179.699,124.492 178.366,123.992 176.5,125C 177.258,123.636 176.758,122.469 175,121.5C 173.16,122.833 172.66,122.666 173.5,121C 172.667,120.167 171.833,119.333 171,118.5C 169.16,119.833 168.66,119.666 169.5,118C 168.529,116.519 167.196,115.685 165.5,115.5C 164.738,113.738 163.404,112.738 161.5,112.5C 160.738,110.738 159.404,109.738 157.5,109.5C 155.332,106.593 152.665,105.093 149.5,105C 150.258,103.636 149.758,102.469 148,101.5C 146.16,102.833 145.66,102.666 146.5,101C 145.667,100.167 144.833,99.3333 144,98.5C 142.16,99.8331 141.66,99.6665 142.5,98C 141.529,96.5187 140.196,95.6854 138.5,95.5C 137.738,93.7376 136.404,92.7376 134.5,92.5C 133.738,90.7376 132.404,89.7376 130.5,89.5C 129.699,87.4916 128.366,86.9916 126.5,88C 127.258,86.6361 126.758,85.4695 125,84.5C 123.16,85.8331 122.66,85.6665 123.5,84C 122.667,83.1667 121.833,82.3333 121,81.5C 119.16,82.8331 118.66,82.6665 119.5,81C 118.529,79.5187 117.196,78.6854 115.5,78.5C 114.738,76.7376 113.404,75.7376 111.5,75.5C 110.738,73.7376 109.404,72.7376 107.5,72.5C 106.699,70.4916 105.366,69.9916 103.5,71C 104.258,69.6361 103.758,68.4695 102,67.5C 100.16,68.8331 99.6598,68.6665 100.5,67C 99.6667,66.1667 98.8333,65.3333 98,64.5C 96.1598,65.8331 95.6598,65.6665 96.5,64C 95.6667,63.1667 94.8333,62.3333 94,61.5C 92.1598,62.8331 91.6598,62.6665 92.5,61C 91.5291,59.5187 90.1958,58.6854 88.5,58.5C 87.7377,56.7376 86.4044,55.7376 84.5,55.5C 82.3319,52.5928 79.6652,51.0928 76.5,51C 77.2583,49.6361 76.7583,48.4695 75,47.5C 73.1598,48.8331 72.6598,48.6665 73.5,47C 72.6667,46.1667 71.8333,45.3333 71,44.5C 69.1598,45.8331 68.6598,45.6665 69.5,44C 68.5291,42.5187 67.1958,41.6854 65.5,41.5C 64.7377,39.7376 63.4044,38.7376 61.5,38.5C 60.7377,36.7376 59.4044,35.7376 57.5,35.5C 56.6993,33.4916 55.366,32.9916 53.5,34C 54.2583,32.6361 53.7583,31.4695 52,30.5C 50.1598,31.8331 49.6598,31.6665 50.5,30C 49.6667,29.1667 48.8333,28.3333 48,27.5C 46.1598,28.8331 45.6598,28.6665 46.5,27C 45.6667,26.1667 44.8333,25.3333 44,24.5C 42.1598,25.8331 41.6598,25.6665 42.5,24C 41.5291,22.5187 40.1958,21.6854 38.5,21.5C 37.7377,19.7376 36.4044,18.7376 34.5,18.5C 32.3319,15.5928 29.6652,14.0928 26.5,14C 27.2583,12.6361 26.7583,11.4695 25,10.5C 23.1598,11.8331 22.6598,11.6665 23.5,10C 22.6667,9.16667 21.8333,8.33333 21,7.5C 19.1598,8.83314 18.6598,8.66647 19.5,7C 18.5291,5.51869 17.1958,4.68535 15.5,4.5C 14.7377,2.73758 13.4044,1.73758 11.5,1.5C 11.1667,0.833333 10.8333,0.166667 10.5,-0.5 Z"/></g>
<g><path style="opacity:0.082" fill="#fe44e5" d="M 11.5,1.5 C 10.8333,2.16667 10.8333,2.16667 11.5,1.5 Z"/></g>
<g><path style="opacity:0.082" fill="#fe44e5" d="M 15.5,4.5 C 14.8333,5.16667 14.8333,5.16667 15.5,4.5 Z"/></g>
<g><path style="opacity:0.086" fill="#fe44e5" d="M 34.5,18.5 C 33.8333,19.1667 33.8333,19.1667 34.5,18.5 Z"/></g>
<g><path style="opacity:0.082" fill="#fe44e5" d="M 38.5,21.5 C 37.8333,22.1667 37.8333,22.1667 38.5,21.5 Z"/></g>
<g><path style="opacity:0.086" fill="#fe44e5" d="M 57.5,35.5 C 56.8333,36.1667 56.8333,36.1667 57.5,35.5 Z"/></g>
<g><path style="opacity:0.082" fill="#fe44e5" d="M 61.5,38.5 C 60.8333,39.1667 60.8333,39.1667 61.5,38.5 Z"/></g>
<g><path style="opacity:0.082" fill="#fe44e5" d="M 65.5,41.5 C 64.8333,42.1667 64.8333,42.1667 65.5,41.5 Z"/></g>
<g><path style="opacity:0.086" fill="#fe44e5" d="M 84.5,55.5 C 83.8333,56.1667 83.8333,56.1667 84.5,55.5 Z"/></g>
<g><path style="opacity:0.082" fill="#fe44e5" d="M 88.5,58.5 C 87.8333,59.1667 87.8333,59.1667 88.5,58.5 Z"/></g>
<g><path style="opacity:0.086" fill="#fe44e5" d="M 107.5,72.5 C 106.833,73.1667 106.833,73.1667 107.5,72.5 Z"/></g>
<g><path style="opacity:0.082" fill="#fe44e5" d="M 111.5,75.5 C 110.833,76.1667 110.833,76.1667 111.5,75.5 Z"/></g>
<g><path style="opacity:0.078" fill="#fe44e5" d="M 115.5,78.5 C 114.833,79.1667 114.833,79.1667 115.5,78.5 Z"/></g>
<g><path style="opacity:0.086" fill="#fe44e5" d="M 130.5,89.5 C 129.833,90.1667 129.833,90.1667 130.5,89.5 Z"/></g>
<g><path style="opacity:0.086" fill="#fe44e5" d="M 134.5,92.5 C 133.833,93.1667 133.833,93.1667 134.5,92.5 Z"/></g>
<g><path style="opacity:0.082" fill="#fe44e5" d="M 138.5,95.5 C 137.833,96.1667 137.833,96.1667 138.5,95.5 Z"/></g>
<g><path style="opacity:0.082" fill="#fe44e5" d="M 157.5,109.5 C 156.833,110.167 156.833,110.167 157.5,109.5 Z"/></g>
<g><path style="opacity:0.082" fill="#fe44e5" d="M 161.5,112.5 C 160.833,113.167 160.833,113.167 161.5,112.5 Z"/></g>
<g><path style="opacity:0.078" fill="#fe44e5" d="M 165.5,115.5 C 164.833,116.167 164.833,116.167 165.5,115.5 Z"/></g>
<g><path style="opacity:0.086" fill="#fe44e5" d="M 180.5,126.5 C 179.833,127.167 179.833,127.167 180.5,126.5 Z"/></g>
<g><path style="opacity:0.086" fill="#fe44e5" d="M 184.5,129.5 C 183.833,130.167 183.833,130.167 184.5,129.5 Z"/></g>
<g><path style="opacity:0.078" fill="#fe44e5" d="M 188.5,132.5 C 187.833,133.167 187.833,133.167 188.5,132.5 Z"/></g>
<g><path style="opacity:0.082" fill="#fe44e5" d="M 207.5,146.5 C 206.833,147.167 206.833,147.167 207.5,146.5 Z"/></g>
<g><path style="opacity:0.082" fill="#fe44e5" d="M 211.5,149.5 C 210.833,150.167 210.833,150.167 211.5,149.5 Z"/></g>
<g><path style="opacity:0.078" fill="#fe44e5" d="M 215.5,152.5 C 214.833,153.167 214.833,153.167 215.5,152.5 Z"/></g>
<g><path style="opacity:0.082" fill="#fe44e5" d="M 230.5,163.5 C 229.833,164.167 229.833,164.167 230.5,163.5 Z"/></g>
<g><path style="opacity:0.082" fill="#fe44e5" d="M 234.5,166.5 C 233.833,167.167 233.833,167.167 234.5,166.5 Z"/></g>
<g><path style="opacity:0.078" fill="#fe44e5" d="M 238.5,169.5 C 237.833,170.167 237.833,170.167 238.5,169.5 Z"/></g>
<g><path style="opacity:0.082" fill="#fe44e5" d="M 257.5,183.5 C 256.833,184.167 256.833,184.167 257.5,183.5 Z"/></g>
<g><path style="opacity:0.082" fill="#fe44e5" d="M 261.5,186.5 C 260.833,187.167 260.833,187.167 261.5,186.5 Z"/></g>
<g><path style="opacity:0.082" fill="#fe44e5" d="M 280.5,200.5 C 279.833,201.167 279.833,201.167 280.5,200.5 Z"/></g>
<g><path style="opacity:0.082" fill="#fe44e5" d="M 284.5,203.5 C 283.833,204.167 283.833,204.167 284.5,203.5 Z"/></g>
<g><path style="opacity:0.082" fill="#fe44e5" d="M 288.5,206.5 C 287.833,207.167 287.833,207.167 288.5,206.5 Z"/></g>
<g><path style="opacity:0.999" fill="#010001" d="M 775.5,492.5 C 742.111,524.343 702.111,541.176 655.5,543C 626.475,543.923 597.475,543.589 568.5,542C 561.588,540.807 554.921,538.807 548.5,536C 541.366,531.697 534.366,527.197 527.5,522.5C 520.966,526.865 514.3,531.031 507.5,535C 500.504,538.22 493.171,540.22 485.5,541C 402.833,541.667 320.167,541.667 237.5,541C 206.888,536.721 188.055,519.554 181,489.5C 179.201,476.034 180.868,463.034 186,450.5C 223.161,384.175 260.827,318.175 299,252.5C 303.885,243.457 309.719,235.124 316.5,227.5C 317.167,227.5 317.5,227.167 317.5,226.5C 324.002,220.744 331.336,216.244 339.5,213C 372.983,203.668 399.15,213.501 418,242.5C 444.919,288.67 471.586,335.003 498,381.5C 500.963,387.127 504.63,392.127 509,396.5C 509.945,396.095 510.612,395.428 511,394.5C 511.333,355.167 511.667,315.833 512,276.5C 514.286,235.547 535.786,212.714 576.5,208C 602.833,207.333 629.167,207.333 655.5,208C 664.545,208.589 673.545,209.589 682.5,211C 758.491,226.657 803.991,272.491 819,348.5C 826.73,403.459 812.23,451.459 775.5,492.5 Z"/></g>
<g><path style="opacity:0.086" fill="#fe44e5" d="M 307.5,220.5 C 306.833,221.167 306.833,221.167 307.5,220.5 Z"/></g>
<g><path style="opacity:0.082" fill="#fe44e5" d="M 311.5,223.5 C 310.833,224.167 310.833,224.167 311.5,223.5 Z"/></g>
<g><path style="opacity:1" fill="#fe43e4" d="M 353.5,236.5 C 368.165,234.775 380.332,239.442 390,250.5C 430,319.833 470,389.167 510,458.5C 520.169,477.975 516.669,494.475 499.5,508C 495.729,510.219 491.729,511.885 487.5,513C 403.167,513.667 318.833,513.667 234.5,513C 214.402,505.988 205.568,491.821 208,470.5C 209.48,466.385 211.147,462.385 213,458.5C 252.586,390.33 291.919,321.997 331,253.5C 336.859,245.505 344.359,239.839 353.5,236.5 Z"/></g>
<g><path style="opacity:1" fill="#fe43e4" d="M 574.5,235.5 C 601.835,235.333 629.169,235.5 656.5,236C 689.829,237.549 719.496,248.549 745.5,269C 782.298,302.705 797.798,344.538 792,394.5C 782.819,453.014 749.986,491.181 693.5,509C 681.361,512.19 669.028,514.19 656.5,515C 626.806,515.934 597.139,515.6 567.5,514C 553.151,509.65 544.317,500.15 541,485.5C 540.333,411.5 540.333,337.5 541,263.5C 546.327,246.994 557.493,237.661 574.5,235.5 Z"/></g>
<g><path style="opacity:0.082" fill="#fe44e5" d="M 824.5,527.5 C 823.833,528.167 823.833,528.167 824.5,527.5 Z"/></g>
<g><path style="opacity:0.082" fill="#fe44e5" d="M 831.5,532.5 C 830.833,533.167 830.833,533.167 831.5,532.5 Z"/></g>
<g><path style="opacity:0.082" fill="#fe44e5" d="M 838.5,537.5 C 837.833,538.167 837.833,538.167 838.5,537.5 Z"/></g>
<g><path style="opacity:0.082" fill="#fe44e5" d="M 845.5,542.5 C 844.833,543.167 844.833,543.167 845.5,542.5 Z"/></g>
<g><path style="opacity:0.082" fill="#fe44e5" d="M 852.5,547.5 C 851.833,548.167 851.833,548.167 852.5,547.5 Z"/></g>
<g><path style="opacity:0.082" fill="#fe44e5" d="M 859.5,552.5 C 858.833,553.167 858.833,553.167 859.5,552.5 Z"/></g>
<g><path style="opacity:0.086" fill="#fe44e5" d="M 866.5,557.5 C 865.833,558.167 865.833,558.167 866.5,557.5 Z"/></g>
<g><path style="opacity:0.086" fill="#fe44e5" d="M 873.5,562.5 C 872.833,563.167 872.833,563.167 873.5,562.5 Z"/></g>
<g><path style="opacity:0.082" fill="#fe44e5" d="M 880.5,567.5 C 879.833,568.167 879.833,568.167 880.5,567.5 Z"/></g>
<g><path style="opacity:0.086" fill="#fe44e5" d="M 887.5,572.5 C 886.833,573.167 886.833,573.167 887.5,572.5 Z"/></g>
<g><path style="opacity:0.086" fill="#fe44e5" d="M 894.5,577.5 C 893.833,578.167 893.833,578.167 894.5,577.5 Z"/></g>
<g><path style="opacity:0.086" fill="#fe44e5" d="M 901.5,582.5 C 900.833,583.167 900.833,583.167 901.5,582.5 Z"/></g>
<g><path style="opacity:0.086" fill="#fe44e5" d="M 908.5,587.5 C 907.833,588.167 907.833,588.167 908.5,587.5 Z"/></g>
<g><path style="opacity:0.082" fill="#fe44e5" d="M 915.5,592.5 C 914.833,593.167 914.833,593.167 915.5,592.5 Z"/></g>
<g><path style="opacity:0.082" fill="#fe44e5" d="M 922.5,597.5 C 921.833,598.167 921.833,598.167 922.5,597.5 Z"/></g>
<g><path style="opacity:0.086" fill="#fe44e5" d="M 929.5,602.5 C 928.833,603.167 928.833,603.167 929.5,602.5 Z"/></g>
<g><path style="opacity:0.086" fill="#fe44e5" d="M 936.5,607.5 C 935.833,608.167 935.833,608.167 936.5,607.5 Z"/></g>
<g><path style="opacity:0.086" fill="#fe44e5" d="M 943.5,612.5 C 942.833,613.167 942.833,613.167 943.5,612.5 Z"/></g>
<g><path style="opacity:0.082" fill="#fe44e5" d="M 950.5,617.5 C 949.833,618.167 949.833,618.167 950.5,617.5 Z"/></g>
<g><path style="opacity:0.082" fill="#fe44e5" d="M 957.5,622.5 C 956.833,623.167 956.833,623.167 957.5,622.5 Z"/></g>
<g><path style="opacity:0.082" fill="#fe44e5" d="M 964.5,627.5 C 963.833,628.167 963.833,628.167 964.5,627.5 Z"/></g>
<g><path style="opacity:0.082" fill="#fe44e5" d="M 971.5,632.5 C 970.833,633.167 970.833,633.167 971.5,632.5 Z"/></g>
<g><path style="opacity:0.082" fill="#fe44e5" d="M 978.5,637.5 C 977.833,638.167 977.833,638.167 978.5,637.5 Z"/></g>
<g><path style="opacity:0.082" fill="#fe44e5" d="M 985.5,642.5 C 984.833,643.167 984.833,643.167 985.5,642.5 Z"/></g>
<g><path style="opacity:0.082" fill="#fe44e5" d="M 992.5,647.5 C 991.833,648.167 991.833,648.167 992.5,647.5 Z"/></g>
<g><path style="opacity:0.059" fill="#fe44e5" d="M 997.5,651.5 C 997.833,651.5 998.167,651.5 998.5,651.5C 998.5,651.833 998.5,652.167 998.5,652.5C 998.167,652.167 997.833,651.833 997.5,651.5 Z"/></g>
<g><path style="opacity:0.082" fill="#fe44e5" d="M 998.5,652.5 C 998.833,652.5 999.167,652.5 999.5,652.5C 999.5,652.833 999.5,653.167 999.5,653.5C 999.167,653.167 998.833,652.833 998.5,652.5 Z"/></g>

<g><path style="opacity:1" fill="#fe43e4" d="M -0.5,-0.5 C 332.833,-0.5 666.167,-0.5 999.5,-0.5C 999.5,249.5 999.5,499.5 999.5,749.5C 666.167,749.5 332.833,749.5 -0.5,749.5C -0.5,499.5 -0.5,249.5 -0.5,-0.5 Z"/></g>
<g><path style="opacity:1" fill="#010000" d="M 632.5,156.5 C 657.169,156.333 681.836,156.5 706.5,157C 769.145,159.056 817.645,185.89 852,237.5C 884.667,296.833 884.667,356.167 852,415.5C 844.769,426.732 836.769,437.399 828,447.5C 808.5,465.667 789,483.833 769.5,502C 736.895,528.095 699.562,541.762 657.5,543C 629.476,543.91 601.476,543.576 573.5,542C 566.269,540.776 559.269,538.776 552.5,536C 545.607,531.597 538.607,527.43 531.5,523.5C 524.728,527.096 518.061,530.929 511.5,535C 504.125,538.094 496.458,540.094 488.5,541C 406.5,541.667 324.5,541.667 242.5,541C 213.474,537.636 194.307,522.136 185,494.5C 181.667,482.174 181.667,469.841 185,457.5C 188.176,448.146 192.176,439.146 197,430.5C 235.268,363.907 273.934,297.574 313,231.5C 333.5,211.667 354,191.833 374.5,172C 399.165,155.186 424.499,154.186 450.5,169C 458.706,175.538 465.872,183.038 472,191.5C 486.167,215.833 500.333,240.167 514.5,264.5C 516.602,251.639 521.435,239.972 529,229.5C 547.805,211.695 566.305,193.529 584.5,175C 598.533,163.602 614.533,157.435 632.5,156.5 Z"/></g>
<g><path style="opacity:1" fill="#fe43e4" d="M 406.5,187.5 C 421.165,185.775 433.332,190.442 443,201.5C 483,270.833 523,340.167 563,409.5C 573.169,428.975 569.669,445.475 552.5,459C 548.729,461.219 544.729,462.885 540.5,464C 456.167,464.667 371.833,464.667 287.5,464C 267.402,456.988 258.568,442.821 261,421.5C 262.48,417.385 264.147,413.385 266,409.5C 305.586,341.33 344.919,272.997 384,204.5C 389.859,196.505 397.359,190.839 406.5,187.5 Z"/></g>
<g><path style="opacity:1" fill="#fe43e4" d="M 627.5,186.5 C 654.835,186.333 682.169,186.5 709.5,187C 742.829,188.549 772.496,199.549 798.5,220C 835.298,253.705 850.798,295.538 845,345.5C 835.819,404.014 802.986,442.181 746.5,460C 734.361,463.19 722.028,465.19 709.5,466C 679.806,466.934 650.139,466.6 620.5,465C 606.151,460.65 597.317,451.15 594,436.5C 593.333,362.5 593.333,288.5 594,214.5C 599.327,197.994 610.493,188.661 627.5,186.5 Z"/></g>
</svg>
